<svg width="13" height="13" viewBox="0 0 13 13" fill="none" xmlns="http://www.w3.org/2000/svg">
<path d="M0.796631 11.7812C0.796631 12.4541 1.37818 13 2.09497 13H11.6161C12.3329 13 12.9144 12.4541 12.9144 11.7812V4.875H0.796631V11.7812ZM9.45221 6.80469C9.45221 6.63711 9.59827 6.5 9.7768 6.5H10.8587C11.0373 6.5 11.1833 6.63711 11.1833 6.80469V7.82031C11.1833 7.98789 11.0373 8.125 10.8587 8.125H9.7768C9.59827 8.125 9.45221 7.98789 9.45221 7.82031V6.80469ZM9.45221 10.0547C9.45221 9.88711 9.59827 9.75 9.7768 9.75H10.8587C11.0373 9.75 11.1833 9.88711 11.1833 10.0547V11.0703C11.1833 11.2379 11.0373 11.375 10.8587 11.375H9.7768C9.59827 11.375 9.45221 11.2379 9.45221 11.0703V10.0547ZM5.98998 6.80469C5.98998 6.63711 6.13604 6.5 6.31456 6.5H7.39651C7.57503 6.5 7.7211 6.63711 7.7211 6.80469V7.82031C7.7211 7.98789 7.57503 8.125 7.39651 8.125H6.31456C6.13604 8.125 5.98998 7.98789 5.98998 7.82031V6.80469ZM5.98998 10.0547C5.98998 9.88711 6.13604 9.75 6.31456 9.75H7.39651C7.57503 9.75 7.7211 9.88711 7.7211 10.0547V11.0703C7.7211 11.2379 7.57503 11.375 7.39651 11.375H6.31456C6.13604 11.375 5.98998 11.2379 5.98998 11.0703V10.0547ZM2.52775 6.80469C2.52775 6.63711 2.67381 6.5 2.85233 6.5H3.93428C4.1128 6.5 4.25886 6.63711 4.25886 6.80469V7.82031C4.25886 7.98789 4.1128 8.125 3.93428 8.125H2.85233C2.67381 8.125 2.52775 7.98789 2.52775 7.82031V6.80469ZM2.52775 10.0547C2.52775 9.88711 2.67381 9.75 2.85233 9.75H3.93428C4.1128 9.75 4.25886 9.88711 4.25886 10.0547V11.0703C4.25886 11.2379 4.1128 11.375 3.93428 11.375H2.85233C2.67381 11.375 2.52775 11.2379 2.52775 11.0703V10.0547ZM11.6161 1.625H10.3178V0.40625C10.3178 0.182812 10.123 0 9.88499 0H9.01943C8.7814 0 8.58665 0.182812 8.58665 0.40625V1.625H5.12442V0.40625C5.12442 0.182812 4.92967 0 4.69164 0H3.82608C3.58806 0 3.39331 0.182812 3.39331 0.40625V1.625H2.09497C1.37818 1.625 0.796631 2.1709 0.796631 2.84375V4.0625H12.9144V2.84375C12.9144 2.1709 12.3329 1.625 11.6161 1.625Z" fill="black" fill-opacity="0.5"/>
</svg>
