<svg width="73" height="73" viewBox="0 0 73 73" fill="none" xmlns="http://www.w3.org/2000/svg">
<path fill-rule="evenodd" clip-rule="evenodd" d="M68.2618 9.77054C68.2618 8.59011 67.7891 7.45803 66.9478 6.62334C66.1064 5.78865 64.9653 5.31973 63.7754 5.31973H9.93878C8.74891 5.31973 7.60778 5.78865 6.76642 6.62334C5.92506 7.45803 5.45239 8.59011 5.45239 9.77054V63.1803C5.45239 64.3607 5.92506 65.4928 6.76642 66.3275C7.60778 67.1622 8.74891 67.6311 9.93878 67.6311H63.7754C64.9653 67.6311 66.1064 67.1622 66.9478 66.3275C67.7891 65.4928 68.2618 64.3607 68.2618 63.1803V9.77054ZM0.966003 9.77054C0.966003 7.40968 1.91135 5.14552 3.59407 3.47614C5.27679 1.80676 7.55905 0.868912 9.93878 0.868912L63.7754 0.868912C66.1551 0.868912 68.4374 1.80676 70.1201 3.47614C71.8028 5.14552 72.7482 7.40968 72.7482 9.77054V63.1803C72.7482 65.5412 71.8028 67.8053 70.1201 69.4747C68.4374 71.1441 66.1551 72.0819 63.7754 72.0819H9.93878C7.55905 72.0819 5.27679 71.1441 3.59407 69.4747C1.91135 67.8053 0.966003 65.5412 0.966003 63.1803V9.77054ZM52.5594 34.25C53.1544 34.25 53.7249 34.4845 54.1456 34.9018C54.5663 35.3192 54.8026 35.8852 54.8026 36.4754C54.8026 37.0656 54.5663 37.6317 54.1456 38.049C53.7249 38.4664 53.1544 38.7008 52.5594 38.7008H26.5698L36.2021 48.2523C36.4106 48.4592 36.5761 48.7048 36.689 48.9752C36.8018 49.2455 36.8599 49.5353 36.8599 49.8279C36.8599 50.1205 36.8018 50.4102 36.689 50.6806C36.5761 50.9509 36.4106 51.1965 36.2021 51.4035C35.9935 51.6104 35.7459 51.7745 35.4734 51.8865C35.2009 51.9985 34.9088 52.0561 34.6139 52.0561C34.3189 52.0561 34.0269 51.9985 33.7544 51.8865C33.4819 51.7745 33.2343 51.6104 33.0257 51.4035L19.5666 38.051C19.3577 37.8443 19.1919 37.5987 19.0788 37.3284C18.9657 37.058 18.9075 36.7681 18.9075 36.4754C18.9075 36.1827 18.9657 35.8929 19.0788 35.6225C19.1919 35.3521 19.3577 35.1066 19.5666 34.8998L33.0257 21.5474C33.4469 21.1295 34.0182 20.8948 34.6139 20.8948C35.2096 20.8948 35.7809 21.1295 36.2021 21.5474C36.6233 21.9653 36.8599 22.532 36.8599 23.123C36.8599 23.7139 36.6233 24.2807 36.2021 24.6986L26.5698 34.25H52.5594Z" fill="white"/>
</svg>
